<?xml version="1.0" standalone="no"?>
<!DOCTYPE svg PUBLIC "-//W3C//DTD SVG 20010904//EN"
 "http://www.w3.org/TR/2001/REC-SVG-20010904/DTD/svg10.dtd">
<svg version="1.0" xmlns="http://www.w3.org/2000/svg"
 width="1090.000000pt" height="1280.000000pt" viewBox="0 0 1090.000000 1280.000000"
 preserveAspectRatio="xMidYMid meet">
<metadata>
Created by potrace 1.15, written by Peter Selinger 2001-2017
</metadata>
<g transform="translate(0.000000,1280.000000) scale(0.100000,-0.100000)"
fill="#8bc34a" stroke="none">
<path d="M287 12789 c-106 -25 -201 -104 -251 -209 -28 -58 -31 -75 -31 -155
0 -81 4 -97 33 -157 46 -95 109 -148 257 -216 225 -104 749 -371 950 -483
1445 -806 2525 -1748 3277 -2859 791 -1166 1188 -2540 1129 -3902 -14 -321
-49 -663 -87 -841 l-6 -27 -1042 0 c-664 0 -1063 -4 -1097 -10 -126 -24 -236
-114 -280 -232 -46 -124 -24 -272 56 -366 19 -22 466 -400 992 -839 526 -439
1396 -1165 1934 -1615 539 -449 999 -826 1023 -838 104 -50 227 -49 334 1 37
18 403 378 1676 1648 895 894 1647 1652 1671 1683 138 184 74 448 -133 550
l-67 33 -1027 3 c-768 2 -1028 5 -1028 14 0 6 9 97 20 202 53 517 55 1125 4
1651 -196 2039 -1105 3740 -2644 4941 -1168 913 -2684 1541 -4530 1878 -277
50 -493 85 -720 116 -85 11 -185 25 -222 30 -79 12 -139 11 -191 -1z"/>
</g>
</svg>
